<svg width="710" height="399" viewBox="0 0 710 399" fill="none" xmlns="http://www.w3.org/2000/svg">
<rect width="710" height="399" fill="#888888"/>
<path d="M173.048 175.72L172.553 175.481C171.068 175.003 169.582 174.764 168.097 174.764C158.937 174.764 154.233 181.937 154.233 196.282C154.233 198.912 154.481 209.911 154.976 212.54V232.863C154.481 239.558 154.233 240.754 154.233 240.993H154.728H154.233C154.233 253.186 161.165 255.577 166.859 255.577C168.84 255.577 171.068 255.338 172.801 254.381C176.267 252.469 178.495 248.882 178.742 245.057V233.341C178.742 230.473 178.99 226.169 179.238 220.431C179.485 214.693 179.733 202.499 179.733 199.151C179.733 186.719 177.505 179.067 173.048 175.72ZM155.719 239.797C155.966 240.515 155.966 240.993 155.719 241.232V239.797Z" fill="white"/>
<path d="M167.111 172.612H167.606L167.854 172.373C174.786 169.743 178.252 164.005 178.252 155.637C178.252 146.312 172.558 144.399 167.854 144.399C167.111 144.399 166.369 144.399 165.626 144.399C157.456 145.595 153 150.138 153 157.788C153 161.614 154.485 165.201 156.961 167.83C159.437 170.461 163.15 172.373 167.111 172.612Z" fill="white"/>
<path d="M393.884 83.6701L294.362 60L286.935 87.0174L289.658 93.712L284.954 93.951L275.547 128.381L298.323 119.056L304.017 131.727L393.884 83.6701Z" fill="#AFAFAF"/>
<path d="M393.884 83.6698L298.323 119.055L304.017 131.727L393.884 83.6698Z" fill="#424242"/>
<path d="M286.932 87.0171L289.656 93.7117L393.881 83.6698L286.932 87.0171Z" fill="#424242"/>
<path d="M294.606 147.986H294.111C291.14 147.507 287.922 147.747 285.199 148.942C282.228 149.66 279.752 151.811 278.514 154.681C275.544 166.157 271.582 177.633 266.879 188.632C262.175 199.152 255.738 208.955 247.816 217.561C246.826 218.518 245.34 218.757 243.112 218.04C239.399 216.844 236.675 213.975 235.19 210.389C221.574 180.024 211.919 160.419 206.225 151.811C203.997 148.464 200.036 146.312 195.827 146.551C194.094 146.551 192.609 146.79 190.876 147.029C187.905 147.747 185.182 149.899 184.192 152.767C182.706 155.398 182.459 158.745 183.696 161.614C193.599 181.22 200.036 193.892 203.254 200.347C208.205 211.584 211.671 219.475 213.404 224.017C223.059 246.014 232.219 256.773 241.627 256.773C242.37 256.773 243.112 256.773 243.855 256.534C249.302 255.577 254.995 248.883 260.937 236.211C268.116 221.148 272.82 210.628 275.296 205.368C282.228 191.74 286.932 182.415 289.407 177.633V177.394C290.645 174.047 292.378 170.7 294.111 167.352C296.092 164.005 297.33 160.18 297.824 156.115C297.824 153.246 296.834 150.377 294.606 148.225V147.986Z" fill="white"/>
<path d="M319.364 145.595L318.868 145.356C317.383 144.877 315.898 144.638 314.165 144.638C305.005 144.638 300.301 151.811 300.301 166.396C300.301 169.265 300.548 172.134 301.044 174.764V233.102C300.548 239.797 300.301 241.232 300.301 241.471L300.796 241.71H300.301C300.301 253.903 307.233 256.534 312.927 256.534C314.907 256.534 317.135 256.295 318.868 255.338C322.334 253.186 324.563 249.6 324.81 245.774V196.043C324.81 192.935 325.058 188.631 325.305 182.893C325.553 177.155 325.8 172.612 325.8 169.504C326.048 156.832 323.82 148.942 319.364 145.595ZM302.034 240.036C302.281 240.754 302.281 241.232 302.281 241.471L302.034 240.036Z" fill="white"/>
<path d="M440.18 147.986H439.685C436.714 147.507 433.496 147.747 430.772 148.942C427.802 149.66 425.326 151.811 424.088 154.681C420.87 166.157 417.156 177.633 412.452 188.632C407.749 199.152 401.312 208.955 393.39 217.561C392.4 218.518 390.914 218.757 388.934 218.04C385.22 216.844 382.497 213.975 381.011 210.389C367.395 180.263 357.74 160.658 352.047 152.05C348.828 147.268 343.629 145.834 336.449 147.268C333.479 147.986 331.003 150.138 329.765 153.007C328.28 155.637 328.032 158.984 329.27 161.853C338.925 180.981 345.61 194.131 348.828 200.586C353.78 211.823 357.245 219.714 359.226 224.256C368.881 246.253 378.041 256.773 387.448 256.773C388.191 256.773 388.934 256.773 389.676 256.534C395.123 255.577 400.817 248.883 406.759 236.211C413.938 220.67 418.642 210.628 421.117 205.368C428.049 191.74 432.753 182.415 435.229 177.633V177.394C436.714 174.047 438.2 170.7 440.18 167.591C442.16 164.244 443.399 160.419 443.893 156.354C443.893 153.485 442.903 150.616 440.922 148.464L440.18 147.986Z" fill="white"/>
<path d="M552.323 186.958C551.58 182.894 551.333 179.068 551.085 175.003V163.527C551.085 151.573 547.619 145.595 540.935 145.595C532.517 145.595 527.566 150.138 526.576 158.745V170.461C526.576 197 526.328 212.541 526.081 216.367C525.338 222.583 522.12 228.321 517.416 232.625C512.217 237.885 506.771 240.515 501.076 240.515C499.839 240.515 498.601 240.275 497.363 239.797C488.451 236.45 480.776 230.234 476.32 221.866C472.854 215.171 471.121 205.846 471.121 194.37V174.047C471.369 164.722 469.636 155.637 466.665 146.791L466.417 146.313L465.922 146.074C463.942 144.4 461.218 143.443 458.495 143.204C454.782 143.443 451.316 145.595 449.335 148.464C446.86 151.334 445.374 154.681 445.127 158.506C445.127 160.18 445.127 162.81 445.374 166.157C445.622 169.504 445.622 171.895 445.622 173.569C445.622 176.916 445.622 182.176 445.374 188.871C445.127 195.565 445.127 200.825 445.127 204.173C444.879 213.497 446.117 222.583 449.088 231.429C453.792 243.862 454.534 245.296 455.029 245.775C462.456 255.816 473.844 260.837 488.699 260.837C490.926 260.837 494.145 260.598 498.601 260.359C503.057 259.642 507.266 258.447 511.227 256.773C514.94 255.099 518.901 253.904 523.11 253.665C526.081 253.665 529.052 253.904 532.023 254.382C535.241 254.86 538.459 255.099 541.43 255.099C551.085 255.099 553.066 250.078 553.066 245.775V199.152C553.561 195.087 553.066 191.023 552.323 186.958Z" fill="white"/>
<path d="M432.009 279.965C428.544 276.618 424.335 274.227 419.631 273.031C413.937 271.119 407.995 270.402 402.054 270.88C391.409 271.836 381.754 276.618 374.822 284.508L374.574 284.747C373.336 286.421 372.346 288.333 371.356 290.007C367.89 295.028 366.157 300.766 366.157 306.744C366.157 318.22 371.851 327.544 382.991 334.239C387.695 336.869 393.142 338.543 398.588 339.021C401.063 339.26 403.787 339.499 406.262 339.499C409.481 339.499 412.451 338.543 415.175 337.108C418.641 335.435 421.116 334 422.602 333.044C427.305 330.414 431.267 327.066 434.485 322.763C437.703 318.937 439.932 314.155 440.922 309.134C441.169 308.178 441.169 306.983 441.169 306.026C440.922 301.244 440.179 296.463 438.446 291.92C436.961 287.616 434.733 283.551 432.009 279.965ZM423.84 307.939C424.087 314.873 421.364 321.328 416.413 326.11C416.413 326.11 415.917 326.588 413.689 327.066C406.758 328.023 405.272 328.262 405.025 328.262C400.074 328.023 395.37 326.11 391.904 322.763C388.19 319.655 385.219 315.351 383.487 310.808C382.496 307.939 382.496 302.679 383.487 295.028C383.734 292.637 385.962 290.007 389.923 287.138C392.646 284.508 396.36 282.834 400.074 282.356H400.568C407.005 282.117 413.442 284.747 417.65 289.529C421.859 294.789 424.335 301.244 423.84 307.939Z" fill="#AFAFAF"/>
<path d="M370.863 327.544H364.426C363.188 327.544 362.198 327.783 360.96 328.262C360.217 328.501 359.474 328.74 358.732 328.74C352.047 328.74 345.363 325.871 339.174 319.894C332.985 313.916 329.766 307.939 329.766 301.723C329.519 295.984 331.994 290.246 336.451 286.182C340.907 282.117 347.096 279.965 353.285 280.204C355.018 280.204 356.503 280.443 358.236 280.922C359.969 281.4 361.95 281.639 363.683 281.639C367.892 281.639 370.12 279.487 370.12 275.901C370.12 273.988 369.13 271.358 364.921 269.684C362.445 268.728 359.969 268.249 357.247 268.249C346.848 268.249 336.451 271.597 328.033 277.574C318.626 283.791 313.179 294.072 313.179 305.07C312.932 315.112 317.883 324.676 326.548 330.414C334.965 335.674 344.62 339.021 354.77 339.738C355.761 339.738 356.503 339.977 357.494 339.977C360.217 339.977 363.188 339.499 365.911 338.543C371.11 336.869 373.586 334.239 373.586 330.653C373.338 327.783 371.357 327.544 370.863 327.544Z" fill="#AFAFAF"/>
<path d="M557.277 320.611C557.277 311.764 556.782 302.918 555.792 294.311C553.563 279.009 548.117 270.402 539.947 268.728C537.719 268.25 535.491 268.011 533.263 268.011C528.559 268.011 524.103 268.967 519.647 270.163C517.666 270.88 516.181 272.075 514.696 273.271C513.21 274.944 511.23 276.14 509.001 276.379C506.278 276.14 503.555 275.423 501.327 273.988C493.9 270.402 492.91 269.923 492.662 269.923C489.444 268.728 486.226 268.25 482.76 268.25C478.303 268.25 467.41 269.445 462.707 272.314C460.231 270.402 457.012 269.445 453.794 269.684C452.556 269.684 451.071 269.923 449.833 270.402C446.367 271.597 444.634 273.51 444.387 275.662C443.891 283.791 443.891 297.658 444.387 317.263C444.387 318.459 444.387 320.133 444.139 322.045C444.139 324.437 443.891 326.11 443.891 327.066C443.891 336.63 447.853 338.782 451.319 338.782C453.546 338.782 455.527 338.064 457.508 337.108L458.003 336.869L458.25 336.63C459.241 335.435 459.736 334.478 460.231 333.761L460.478 333.283V332.804C460.478 328.262 460.231 323.958 459.736 319.416C459.241 312.482 458.993 307.939 458.993 305.548C458.745 300.049 459.488 294.789 461.221 289.529C462.707 285.703 463.944 281.878 464.935 278.052C467.41 278.052 469.886 278.292 472.361 278.531L472.609 278.77H472.857C480.531 280.443 482.016 281.4 482.264 281.4C484.493 283.313 486.473 285.703 487.959 288.334C489.444 290.724 490.681 293.355 491.177 295.984C491.919 302.44 492.167 309.135 491.919 315.829C491.919 316.785 491.919 318.698 491.672 320.85C491.424 323.002 491.424 325.154 491.424 326.349C491.177 330.175 492.414 334 495.138 336.869C496.128 337.825 497.613 338.303 499.099 338.303C505.535 338.303 507.268 335.674 507.516 333.283C508.259 326.827 508.506 320.133 508.259 313.677C508.011 304.114 508.011 297.419 508.259 294.311C508.754 290.007 510.239 285.943 512.467 282.356C512.963 281.639 513.705 280.922 514.448 280.443C515.686 280.204 517.171 279.965 518.656 279.965C523.608 279.965 528.311 281.161 532.52 283.791C536.729 285.943 539.205 289.768 539.452 294.311C539.947 317.981 540.442 331.131 541.433 334.239C542.423 338.543 547.374 339.738 553.811 335.913C556.781 334.239 558.02 332.087 558.02 330.175C558.02 328.262 557.277 324.915 557.277 320.611Z" fill="#AFAFAF"/>
<path d="M310.208 319.894C309.465 319.894 308.475 320.133 307.732 320.372C304.514 321.807 302.286 325.154 302.781 328.502C302.781 330.892 303.524 333.284 305.009 335.196C306.247 337.109 308.475 338.305 310.703 338.066C312.931 338.066 315.16 337.348 316.893 335.913C318.625 334.479 319.368 332.327 319.368 330.175C319.368 327.545 318.378 325.154 316.645 323.241C314.912 321.329 312.684 320.133 310.208 319.894Z" fill="#AFAFAF"/>
</svg>
